<?xml version="1.0" encoding="UTF-8"?> <svg xmlns="http://www.w3.org/2000/svg" width="46.802" height="46.802" viewBox="0 0 46.802 46.802"><g id="Group_1140" data-name="Group 1140" transform="translate(-204.1 -827.43)"><path id="linkedin" d="M3.867,16.283V5.3H.215V16.283ZM2.041,3.8A1.9,1.9,0,1,0,2.066,0a1.9,1.9,0,1,0-.048,3.8h.024ZM5.888,16.283H9.539V10.148a2.5,2.5,0,0,1,.12-.891,2,2,0,0,1,1.873-1.336c1.321,0,1.85,1.007,1.85,2.484v5.877h3.651v-6.3c0-3.375-1.8-4.944-4.2-4.944A3.636,3.636,0,0,0,9.515,6.89H9.54V5.3H5.888c.048,1.031,0,10.986,0,10.986Z" transform="translate(219.834 841.338)" fill="#1c1f2f"></path><g id="Ellipse_52" data-name="Ellipse 52" transform="translate(204.1 827.43)" fill="none" stroke="#1c1f2f" stroke-width="2"><circle cx="23.401" cy="23.401" r="23.401" stroke="none"></circle><circle cx="23.401" cy="23.401" r="22.401" fill="none"></circle></g></g></svg> 