<svg xmlns="http://www.w3.org/2000/svg" width="40" height="40" viewBox="0 0 40 40">
  <g id="Group_2449" data-name="Group 2449" transform="translate(-237 -1202)">
    <circle id="Ellipse_1270" data-name="Ellipse 1270" cx="20" cy="20" r="20" transform="translate(237 1202)" fill="#009fa4"/>
    <path id="twitter" d="M19.2,4.872A5.16,5.16,0,0,1,18.483,5.9a5.292,5.292,0,0,1-1.295,1.092q.022.171.032.321a11.65,11.65,0,0,1-.824,4.463,11.752,11.752,0,0,1-4.677,5.811A12.3,12.3,0,0,1,4.4,18.923a8.406,8.406,0,0,1-4.4-1.7,8.2,8.2,0,0,0,5.865-1.691A4.04,4.04,0,0,1,2.141,12.77a2.5,2.5,0,0,0,.835.043,7.766,7.766,0,0,0,.942-.129,4.415,4.415,0,0,1-2.676-2.076,4.476,4.476,0,0,1-.45-1.969,3.761,3.761,0,0,0,1.777.535A4.59,4.59,0,0,1,.824,6.337a5.252,5.252,0,0,1,.482-2.558A13.453,13.453,0,0,0,5.876,7.2a9.467,9.467,0,0,0,3.585.749,4.791,4.791,0,0,1,.482-3.039,4.141,4.141,0,0,1,2.472-1.8,3.649,3.649,0,0,1,3.66,1.134,6.515,6.515,0,0,0,2.547-.942,3.865,3.865,0,0,1-1.755,2.269A11.13,11.13,0,0,0,19.2,4.871Z" transform="translate(248 1212.001)" fill="#f8f8f6"/>
  </g>
</svg>
